<?xml version="1.0" encoding="UTF-8" standalone="no"?><svg xmlns="http://www.w3.org/2000/svg" xmlns:xlink="http://www.w3.org/1999/xlink" fill="#000000" height="450" version="1" viewBox="0 0 600 450" width="600"><g><linearGradient gradientTransform="matrix(1 0 0 -1 -120.945 379.362)" gradientUnits="userSpaceOnUse" id="a" x1="591.444" x2="250.155" y1="222.545" y2="86.064"><stop offset="0" stop-color="#ffffff"/><stop offset="0.49" stop-color="#ffffff"/><stop offset="0.49" stop-color="#ffffff"/><stop offset="1" stop-color="#ffffff"/></linearGradient><path d="M444.1,178.7v129.6L300,391.5l-144.2-83.2V141.8L300,58.5l110.8,64l16.7-9.6L300,39.2l-160.9,92.9v185.8 L300,410.8l160.9-92.9V169L444.1,178.7z" fill="url(#a)"/><linearGradient gradientTransform="matrix(1 0 0 -1 -120.945 379.362)" gradientUnits="userSpaceOnUse" id="b" x1="584.855" x2="243.566" y1="239.021" y2="102.54"><stop offset="0" stop-color="#ffffff"/><stop offset="0.49" stop-color="#ffffff"/><stop offset="0.49" stop-color="#ffffff"/><stop offset="1" stop-color="#ffffff"/></linearGradient><path d="M259.6,308.3h-24.1v-80.9h80.4 c7.6-0.1,14.9-3.2,20.2-8.6c5.4-5.4,8.4-12.7,8.4-20.3c0-3.8-0.7-7.5-2.1-11c-1.5-3.5-3.6-6.6-6.3-9.2c-2.6-2.7-5.8-4.8-9.2-6.3 c-3.5-1.5-7.2-2.2-11-2.2h-80.4v-24.6H316c14.1,0.1,27.6,5.7,37.5,15.7c10,10,15.6,23.5,15.7,37.5c0.1,10.8-3.2,21.3-9.4,30.1 c-5.7,8.4-13.8,15-23.2,19c-9.3,3-19,4.4-28.8,4.3h-48.2L259.6,308.3z" fill="url(#b)"/><linearGradient gradientTransform="matrix(1 0 0 -1 -120.945 379.362)" gradientUnits="userSpaceOnUse" id="c" x1="618.981" x2="277.693" y1="153.684" y2="17.203"><stop offset="0" stop-color="#ffffff"/><stop offset="0.49" stop-color="#ffffff"/><stop offset="0.49" stop-color="#ffffff"/><stop offset="1" stop-color="#ffffff"/></linearGradient><path d="M368.7,306.3h-28.1l-21.7-37.9 c8.6-0.5,17.1-2.3,25.2-5.1L368.7,306.3z" fill="url(#c)"/><linearGradient gradientTransform="matrix(1 0 0 -1 -120.945 379.362)" gradientUnits="userSpaceOnUse" id="d" x1="582.571" x2="241.282" y1="244.664" y2="108.183"><stop offset="0" stop-color="#ffffff"/><stop offset="0.49" stop-color="#ffffff"/><stop offset="0.49" stop-color="#ffffff"/><stop offset="1" stop-color="#ffffff"/></linearGradient><path d="M427.3,151.7L444,161l16.6-9.2v-19.5 l-16.6-9.6l-16.6,9.6V151.7z" fill="url(#d)"/></g></svg>